<svg width="168" height="168" viewBox="0 0 168 168" fill="none" xmlns="http://www.w3.org/2000/svg">
<rect width="168" height="168" rx="32" fill="#EEFF88"/>
<g opacity="0.2">
<path d="M78.952 62.936C82.6213 62.936 85.992 63.5333 89.064 64.728C92.2213 65.8373 94.952 67.5867 97.256 69.976C99.56 72.28 101.352 75.3093 102.632 79.064C103.912 82.7333 104.552 87.128 104.552 92.248V128.6H98.024V92.504C98.024 84.7387 96.232 78.8933 92.648 74.968C89.064 70.9573 84.1573 68.952 77.928 68.952C71.016 68.952 65.5547 71.4693 61.544 76.504C57.5333 81.4533 55.528 88.152 55.528 96.6V128.6H49V39H55.528V79.064C57.4053 74.3707 60.2213 70.5307 63.976 67.544C67.816 64.472 72.808 62.936 78.952 62.936Z" fill="#111111"/>
<path d="M114.773 50.008C113.493 50.008 112.384 49.5813 111.445 48.728C110.592 47.8747 110.165 46.7653 110.165 45.4C110.165 44.0347 110.592 42.9253 111.445 42.072C112.384 41.2187 113.493 40.792 114.773 40.792C116.053 40.792 117.12 41.2187 117.973 42.072C118.912 42.9253 119.381 44.0347 119.381 45.4C119.381 46.7653 118.912 47.8747 117.973 48.728C117.12 49.5813 116.053 50.008 114.773 50.008ZM111.445 63.704H117.973V128.6H111.445V63.704Z" fill="#111111"/>
</g>
</svg>
