<svg width="170" height="204" viewBox="0 0 170 204" fill="none" xmlns="http://www.w3.org/2000/svg">
<rect x="3.40704" y="9.31524" width="163.187" height="163.187" rx="14.9307" fill="#EEFF88" stroke="#111111" stroke-width="0.963273"/>
<line x1="166.595" y1="9.31543" x2="166.595" y2="172.502" stroke="black" stroke-width="0.96"/>
<line y1="-0.48" x2="162.707" y2="-0.48" transform="matrix(1 8.74228e-08 8.74228e-08 -1 3.64648 172.502)" stroke="black" stroke-width="0.96"/>
<line x1="3.40723" y1="9.31688" x2="166.114" y2="9.31686" stroke="black" stroke-width="0.96"/>
<line y1="-0.48" x2="163.186" y2="-0.48" transform="matrix(-4.37114e-08 1 1 4.37114e-08 3.88867 9.31543)" stroke="black" stroke-width="0.96"/>
<g opacity="0.2">
<path d="M79.7625 70.0446C83.4319 70.0446 86.8025 70.642 89.8745 71.8366C93.0319 72.946 95.7625 74.6953 98.0665 77.0846C100.371 79.3886 102.163 82.418 103.443 86.1726C104.723 89.842 105.363 94.2366 105.363 99.3566V135.709H98.8345V99.6126C98.8345 91.8473 97.0425 86.002 93.4585 82.0766C89.8745 78.066 84.9679 76.0606 78.7385 76.0606C71.8265 76.0606 66.3652 78.578 62.3545 83.6126C58.3439 88.562 56.3385 95.2606 56.3385 103.709V135.709H49.8105V46.1086H56.3385V86.1726C58.2159 81.4793 61.0319 77.6393 64.7865 74.6526C68.6265 71.5806 73.6185 70.0446 79.7625 70.0446Z" fill="#111111"/>
<path d="M115.584 57.1166C114.304 57.1166 113.194 56.69 112.256 55.8366C111.402 54.9833 110.976 53.874 110.976 52.5086C110.976 51.1433 111.402 50.034 112.256 49.1806C113.194 48.3273 114.304 47.9006 115.584 47.9006C116.864 47.9006 117.93 48.3273 118.784 49.1806C119.722 50.034 120.192 51.1433 120.192 52.5086C120.192 53.874 119.722 54.9833 118.784 55.8366C117.93 56.69 116.864 57.1166 115.584 57.1166ZM112.256 70.8126H118.784V135.709H112.256V70.8126Z" fill="#111111"/>
</g>
<rect x="163.704" y="6.42705" width="5.77703" height="5.77703" fill="#EEFF88" stroke="#111111" stroke-width="0.963273"/>
<rect x="151.188" y="18.9429" width="5.77703" height="5.77703" rx="2.88851" fill="white" stroke="#111111" stroke-width="0.963273"/>
<rect x="13.035" y="18.9429" width="5.77703" height="5.77703" rx="2.88851" fill="white" stroke="#111111" stroke-width="0.963273"/>
<rect x="151.188" y="157.097" width="5.77703" height="5.77703" rx="2.88851" fill="white" stroke="#111111" stroke-width="0.963273"/>
<rect x="13.035" y="157.097" width="5.77703" height="5.77703" rx="2.88851" fill="white" stroke="#111111" stroke-width="0.963273"/>
<rect x="163.704" y="169.613" width="5.77703" height="5.77703" fill="#EEFF88" stroke="#111111" stroke-width="0.963273"/>
<rect x="0.518363" y="169.613" width="5.77703" height="5.77703" fill="#EEFF88" stroke="#111111" stroke-width="0.963273"/>
<rect x="0.518363" y="6.42705" width="5.77703" height="5.77703" fill="#EEFF88" stroke="#111111" stroke-width="0.963273"/>
<g filter="url(#filter0_d_337_698)">
<path d="M161.328 25.8588C161.328 25.9638 161.38 25.5663 161.545 25.3038C161.609 25.1148 161.745 24.9589 161.924 24.8703C162.012 24.8264 162.108 24.8003 162.207 24.7936C162.305 24.787 162.404 24.7998 162.498 24.8312C162.591 24.8628 162.678 24.9124 162.752 24.9774C162.826 25.0423 162.887 25.1212 162.931 25.2097C162.975 25.2981 163.001 25.3943 163.008 25.4928C163.014 25.5913 163.002 25.6902 162.97 25.7838C162.97 26.2788 162.97 26.2563 162.97 26.5863C162.97 26.9163 162.97 27.2012 162.97 27.4863C162.941 27.925 162.881 28.3611 162.79 28.7912C162.67 29.1558 162.503 29.5036 162.295 29.8263C161.931 30.2336 161.63 30.6939 161.403 31.1912C161.344 31.4367 161.318 31.689 161.328 31.9412C161.328 32.1742 161.358 32.4061 161.418 32.6312C161.111 32.665 160.802 32.665 160.495 32.6312C160.203 32.5863 159.835 32.0012 159.745 31.8212C159.722 31.7718 159.686 31.73 159.64 31.7007C159.594 31.6713 159.541 31.6557 159.486 31.6557C159.432 31.6557 159.379 31.6713 159.333 31.7007C159.287 31.73 159.25 31.7718 159.228 31.8212C159.063 32.1063 158.703 32.6238 158.44 32.6538C157.945 32.7138 156.903 32.6538 156.093 32.6538C156.093 32.6538 156.228 31.9038 155.92 31.6338C155.613 31.3638 155.298 31.0488 155.058 30.8388L154.435 30.1488C153.997 29.7406 153.676 29.2227 153.505 28.6488C153.348 27.9438 153.363 27.5988 153.505 27.3212C153.663 27.0907 153.901 26.9275 154.173 26.8638C154.391 26.8254 154.615 26.8408 154.825 26.9088C154.972 26.9704 155.1 27.0716 155.193 27.2012C155.365 27.4338 155.418 27.5463 155.358 27.2912C155.298 27.0363 155.208 26.6612 155.05 26.1288C154.923 25.7163 154.795 25.4838 154.698 25.2063C154.6 24.9288 154.473 24.6663 154.323 24.3212C154.187 23.969 154.074 23.6082 153.985 23.2412C153.951 23.0901 153.95 22.9335 153.983 22.782C154.015 22.6305 154.08 22.4878 154.173 22.3638C154.304 22.2341 154.468 22.1415 154.647 22.0954C154.826 22.0493 155.015 22.0513 155.193 22.1012C155.476 22.2239 155.714 22.4308 155.875 22.6938C156.099 23.0565 156.281 23.4441 156.415 23.8488C156.662 24.4926 156.838 25.1616 156.94 25.8438C156.922 25.4413 156.955 25.0381 157.038 24.6438C157.079 24.524 157.147 24.4153 157.237 24.3257C157.327 24.236 157.435 24.1679 157.555 24.1263C157.778 24.0548 158.015 24.0394 158.245 24.0812C158.475 24.1323 158.677 24.2657 158.815 24.4563C158.987 24.8946 159.086 25.3583 159.108 25.8288C159.13 25.4267 159.2 25.0288 159.318 24.6438C159.443 24.4676 159.626 24.3404 159.835 24.2838C160.083 24.2389 160.337 24.2389 160.585 24.2838C160.788 24.3526 160.966 24.4806 161.095 24.6512C161.254 25.0491 161.35 25.4691 161.38 25.8963" fill="white"/>
<path d="M161.328 25.8588C161.328 25.9638 161.38 25.5663 161.545 25.3038C161.609 25.1148 161.745 24.9589 161.924 24.8703C162.012 24.8264 162.108 24.8003 162.207 24.7936C162.305 24.787 162.404 24.7998 162.498 24.8312C162.591 24.8628 162.678 24.9124 162.752 24.9774C162.826 25.0423 162.887 25.1212 162.931 25.2097C162.975 25.2981 163.001 25.3943 163.008 25.4928C163.014 25.5913 163.002 25.6902 162.97 25.7838C162.97 26.2788 162.97 26.2563 162.97 26.5863C162.97 26.9163 162.97 27.2012 162.97 27.4863C162.941 27.925 162.881 28.3611 162.79 28.7912C162.67 29.1558 162.503 29.5036 162.295 29.8263C161.931 30.2336 161.63 30.6939 161.403 31.1912C161.344 31.4367 161.318 31.689 161.328 31.9412C161.328 32.1742 161.358 32.4061 161.418 32.6312C161.111 32.665 160.802 32.665 160.495 32.6312C160.203 32.5863 159.835 32.0012 159.745 31.8212C159.722 31.7718 159.686 31.73 159.64 31.7007C159.594 31.6713 159.541 31.6557 159.486 31.6557C159.432 31.6557 159.379 31.6713 159.333 31.7007C159.287 31.73 159.25 31.7718 159.228 31.8212C159.063 32.1063 158.703 32.6238 158.44 32.6538C157.945 32.7138 156.903 32.6538 156.093 32.6538C156.093 32.6538 156.228 31.9038 155.92 31.6338C155.613 31.3638 155.298 31.0488 155.058 30.8388L154.435 30.1488C153.997 29.7406 153.676 29.2227 153.505 28.6488C153.348 27.9438 153.363 27.5988 153.505 27.3212C153.663 27.0907 153.901 26.9275 154.173 26.8638C154.391 26.8254 154.615 26.8408 154.825 26.9088C154.972 26.9704 155.1 27.0716 155.193 27.2012C155.365 27.4338 155.418 27.5463 155.358 27.2912C155.298 27.0363 155.208 26.6612 155.05 26.1288C154.923 25.7163 154.795 25.4838 154.698 25.2063C154.6 24.9288 154.473 24.6663 154.323 24.3212C154.187 23.969 154.074 23.6082 153.985 23.2412C153.951 23.0901 153.95 22.9335 153.983 22.782C154.015 22.6305 154.08 22.4878 154.173 22.3638C154.304 22.2341 154.468 22.1415 154.647 22.0954C154.826 22.0493 155.015 22.0513 155.193 22.1012C155.476 22.2239 155.714 22.4308 155.875 22.6938C156.099 23.0565 156.281 23.4441 156.415 23.8488C156.662 24.4926 156.838 25.1616 156.94 25.8438C156.922 25.4413 156.955 25.0381 157.038 24.6438C157.079 24.524 157.147 24.4153 157.237 24.3257C157.327 24.236 157.435 24.1679 157.555 24.1263C157.778 24.0548 158.015 24.0394 158.245 24.0812C158.475 24.1323 158.677 24.2657 158.815 24.4563C158.987 24.8946 159.086 25.3583 159.108 25.8288C159.13 25.4267 159.2 25.0288 159.318 24.6438C159.443 24.4676 159.626 24.3404 159.835 24.2838C160.083 24.2389 160.337 24.2389 160.585 24.2838C160.788 24.3526 160.966 24.4806 161.095 24.6512C161.232 25.04 161.31 25.447 161.328 25.8588Z" stroke="#111111" stroke-width="0.75" stroke-linejoin="round"/>
<path d="M160.6 30.4188V27.8237" stroke="#111111" stroke-width="0.75" stroke-linecap="round"/>
<path d="M159.086 30.4262L159.078 27.8237" stroke="#111111" stroke-width="0.75" stroke-linecap="round"/>
<path d="M157.592 27.8462L157.607 30.4112" stroke="#111111" stroke-width="0.75" stroke-linecap="round"/>
</g>
<rect x="28" y="1" width="54.8006" height="15.9003" rx="1.93354" fill="#111111"/>
<path d="M31.8558 12.4502H32.7905V9.48522H34.6339L36.2384 12.4502H37.334L35.5997 9.33982C36.5396 9.04385 37.1056 8.2338 37.1056 7.19528V7.18489C37.1056 5.84001 36.1605 4.95726 34.717 4.95726H31.8558V12.4502ZM32.7905 8.6544V5.78808H34.5923C35.5582 5.78808 36.1397 6.32292 36.1397 7.21605V7.22643C36.1397 8.14033 35.5945 8.6544 34.6339 8.6544H32.7905ZM40.2263 12.5489C40.9792 12.5489 41.566 12.2217 41.9191 11.6246H42.0022V12.4502H42.9057V8.61805C42.9057 7.45491 42.1424 6.75391 40.7767 6.75391C39.5824 6.75391 38.7308 7.34586 38.5854 8.22341L38.5803 8.25457H39.4838L39.489 8.23899C39.6344 7.80281 40.0757 7.55357 40.7456 7.55357C41.5816 7.55357 42.0022 7.92743 42.0022 8.61805V9.12693L40.3977 9.22559C39.0943 9.30348 38.357 9.87985 38.357 10.8768V10.8872C38.357 11.905 39.1618 12.5489 40.2263 12.5489ZM39.2813 10.8665V10.8561C39.2813 10.3005 39.6551 9.99928 40.5067 9.94736L42.0022 9.85389V10.3628C42.0022 11.1624 41.3323 11.7648 40.4132 11.7648C39.7642 11.7648 39.2813 11.4324 39.2813 10.8665ZM46.6236 12.5489C47.4025 12.5489 48.0256 12.1802 48.3683 11.5571H48.4514V12.4502H49.3549V4.63013H48.4514V7.73531H48.3683C48.062 7.13816 47.3921 6.75391 46.6236 6.75391C45.2008 6.75391 44.2765 7.89109 44.2765 9.64619V9.65657C44.2765 11.4013 45.206 12.5489 46.6236 12.5489ZM46.8313 11.7492C45.8084 11.7492 45.2008 10.9599 45.2008 9.65657V9.64619C45.2008 8.34284 45.8084 7.55357 46.8313 7.55357C47.8491 7.55357 48.4722 8.35323 48.4722 9.64619V9.65657C48.4722 10.9495 47.8491 11.7492 46.8313 11.7492ZM51.567 5.7725C51.9097 5.7725 52.1901 5.4921 52.1901 5.14939C52.1901 4.80668 51.9097 4.52628 51.567 4.52628C51.2243 4.52628 50.9439 4.80668 50.9439 5.14939C50.9439 5.4921 51.2243 5.7725 51.567 5.7725ZM51.11 12.4502H52.0135V6.85256H51.11V12.4502ZM55.5912 12.5489C56.4117 12.5489 56.9777 12.2113 57.2529 11.6142H57.336V12.4502H58.2395V6.85256H57.336V10.1654C57.336 11.1469 56.8115 11.7492 55.8249 11.7492C54.9318 11.7492 54.5683 11.2663 54.5683 10.2589V6.85256H53.6648V10.477C53.6648 11.8011 54.3191 12.5489 55.5912 12.5489ZM61.8483 12.5489C63.1205 12.5489 64.0915 11.8582 64.0915 10.8613V10.8509C64.0915 10.0512 63.5827 9.59426 62.5286 9.33982L61.6666 9.13212C61.0071 8.97115 60.7267 8.73229 60.7267 8.35323V8.34284C60.7267 7.84955 61.2148 7.50683 61.8795 7.50683C62.5545 7.50683 62.9907 7.8132 63.1101 8.25457H63.9981C63.8734 7.34067 63.0582 6.75391 61.8847 6.75391C60.6956 6.75391 59.8024 7.45491 59.8024 8.38438V8.38958C59.8024 9.19443 60.275 9.65138 61.3239 9.90063L62.191 10.1083C62.8817 10.2745 63.1673 10.5393 63.1673 10.9184V10.9288C63.1673 11.4376 62.6324 11.7959 61.8795 11.7959C61.1629 11.7959 60.7163 11.4896 60.5658 11.0222H59.6415C59.7453 11.9465 60.6021 12.5489 61.8483 12.5489ZM70.3123 12.4502H71.2469V4.95726H70.3175L68.3235 6.39042V7.37702L70.2292 5.99578H70.3123V12.4502ZM76.0605 12.6267C77.5715 12.6267 78.6828 11.5415 78.6828 10.046V10.0356C78.6828 8.59728 77.6339 7.5276 76.2267 7.5276C75.2141 7.5276 74.5079 8.07283 74.2327 8.68556H74.134C74.134 8.62844 74.134 8.56613 74.1392 8.50901C74.1963 6.94603 74.752 5.61672 76.1124 5.61672C76.8705 5.61672 77.395 6.00617 77.6235 6.63448L77.6442 6.69159H78.5841L78.5685 6.62409C78.3141 5.51806 77.3794 4.78071 76.1228 4.78071C74.3054 4.78071 73.2409 6.27619 73.2409 8.83095V8.84133C73.2409 11.6609 74.6896 12.6267 76.0605 12.6267ZM74.3573 10.0356V10.0304C74.3573 9.05423 75.0947 8.34284 76.0657 8.34284C77.0367 8.34284 77.7429 9.05942 77.7429 10.0564V10.0668C77.7429 11.0378 76.99 11.8011 76.0501 11.8011C75.0999 11.8011 74.3573 11.0222 74.3573 10.0356Z" fill="white"/>
<rect x="49.0625" y="184" width="71.8751" height="19.7684" rx="2.51227" fill="#111111"/>
<path d="M56.2989 198.884H57.5133V189.149H56.3057L53.7149 191.011V192.293L56.191 190.498H56.2989V198.884ZM63.7677 199.114C65.731 199.114 67.1748 197.704 67.1748 195.76V195.747C67.1748 193.878 65.8119 192.488 63.9836 192.488C62.6679 192.488 61.7504 193.197 61.3928 193.993H61.2646C61.2646 193.919 61.2646 193.838 61.2713 193.763C61.3455 191.733 62.0675 190.005 63.8351 190.005C64.8202 190.005 65.5016 190.511 65.7984 191.328L65.8254 191.402H67.0466L67.0264 191.314C66.6958 189.877 65.4813 188.919 63.8486 188.919C61.4872 188.919 60.1041 190.862 60.1041 194.182V194.195C60.1041 197.859 61.9865 199.114 63.7677 199.114ZM61.5547 195.747V195.74C61.5547 194.472 62.5127 193.548 63.7744 193.548C65.0361 193.548 65.9536 194.479 65.9536 195.774V195.787C65.9536 197.049 64.9753 198.041 63.7542 198.041C62.5195 198.041 61.5547 197.029 61.5547 195.747ZM72.4508 199.046C74.5153 199.046 75.9861 197.886 75.9861 196.253V196.24C75.9861 195.039 75.1428 194.04 73.8946 193.75V193.723C74.9606 193.392 75.6353 192.583 75.6353 191.557V191.544C75.6353 190.073 74.2927 188.987 72.4508 188.987C70.6089 188.987 69.2663 190.073 69.2663 191.544V191.557C69.2663 192.583 69.941 193.392 71.007 193.723V193.75C69.7588 194.04 68.9155 195.039 68.9155 196.24V196.253C68.9155 197.886 70.3863 199.046 72.4508 199.046ZM72.4508 193.271C71.2769 193.271 70.474 192.603 70.474 191.658V191.645C70.474 190.7 71.2769 190.032 72.4508 190.032C73.6248 190.032 74.4276 190.7 74.4276 191.645V191.658C74.4276 192.603 73.6248 193.271 72.4508 193.271ZM72.4508 197.987C71.1082 197.987 70.1501 197.231 70.1501 196.179V196.165C70.1501 195.099 71.1015 194.337 72.4508 194.337C73.8002 194.337 74.7515 195.099 74.7515 196.165V196.179C74.7515 197.231 73.7934 197.987 72.4508 197.987Z" fill="white"/>
<path d="M88.1683 191.422L87.4612 190.715L84.9992 193.177L82.5384 190.716L81.8313 191.423L84.2921 193.884L81.8301 196.346L82.5372 197.053L84.9992 194.591L87.4599 197.052L88.167 196.345L85.7063 193.884L88.1683 191.422Z" fill="white"/>
<path d="M96.6056 198.884H97.82V189.149H96.6124L94.0216 191.011V192.293L96.4977 190.498H96.6056V198.884ZM104.074 199.114C106.038 199.114 107.481 197.704 107.481 195.76V195.747C107.481 193.878 106.119 192.488 104.29 192.488C102.975 192.488 102.057 193.197 101.699 193.993H101.571C101.571 193.919 101.571 193.838 101.578 193.763C101.652 191.733 102.374 190.005 104.142 190.005C105.127 190.005 105.808 190.511 106.105 191.328L106.132 191.402H107.353L107.333 191.314C107.002 189.877 105.788 188.919 104.155 188.919C101.794 188.919 100.411 190.862 100.411 194.182V194.195C100.411 197.859 102.293 199.114 104.074 199.114ZM101.861 195.747V195.74C101.861 194.472 102.819 193.548 104.081 193.548C105.343 193.548 106.26 194.479 106.26 195.774V195.787C106.26 197.049 105.282 198.041 104.061 198.041C102.826 198.041 101.861 197.029 101.861 195.747ZM112.758 199.046C114.822 199.046 116.293 197.886 116.293 196.253V196.24C116.293 195.039 115.449 194.04 114.201 193.75V193.723C115.267 193.392 115.942 192.583 115.942 191.557V191.544C115.942 190.073 114.599 188.987 112.758 188.987C110.916 188.987 109.573 190.073 109.573 191.544V191.557C109.573 192.583 110.248 193.392 111.314 193.723V193.75C110.066 194.04 109.222 195.039 109.222 196.24V196.253C109.222 197.886 110.693 199.046 112.758 199.046ZM112.758 193.271C111.584 193.271 110.781 192.603 110.781 191.658V191.645C110.781 190.7 111.584 190.032 112.758 190.032C113.931 190.032 114.734 190.7 114.734 191.645V191.658C114.734 192.603 113.931 193.271 112.758 193.271ZM112.758 197.987C111.415 197.987 110.457 197.231 110.457 196.179V196.165C110.457 195.099 111.408 194.337 112.758 194.337C114.107 194.337 115.058 195.099 115.058 196.165V196.179C115.058 197.231 114.1 197.987 112.758 197.987Z" fill="white"/>
<defs>
<filter id="filter0_d_337_698" x="151.018" y="21.6873" width="14.3672" height="15.3682" filterUnits="userSpaceOnUse" color-interpolation-filters="sRGB">
<feFlood flood-opacity="0" result="BackgroundImageFix"/>
<feColorMatrix in="SourceAlpha" type="matrix" values="0 0 0 0 0 0 0 0 0 0 0 0 0 0 0 0 0 0 127 0" result="hardAlpha"/>
<feOffset dy="2"/>
<feGaussianBlur stdDeviation="1"/>
<feColorMatrix type="matrix" values="0 0 0 0 0 0 0 0 0 0 0 0 0 0 0 0 0 0 0.25 0"/>
<feBlend mode="normal" in2="BackgroundImageFix" result="effect1_dropShadow_337_698"/>
<feBlend mode="normal" in="SourceGraphic" in2="effect1_dropShadow_337_698" result="shape"/>
</filter>
</defs>
</svg>
