<svg xmlns="http://www.w3.org/2000/svg" width="56" height="56" viewBox="0 0 56 56" fill="none">
  <g filter="url(#filter0_i_2435_390)">
    <circle cx="28" cy="28" r="28" fill="#34C759"/>
  </g>
  <g filter="url(#filter1_d_2435_390)">
    <path fill-rule="evenodd" clip-rule="evenodd" d="M28 16C21.3726 16 16 21.3726 16 28C16 34.6274 21.3726 40 28 40C34.6274 40 40 34.6274 40 28C40 21.3726 34.6274 16 28 16Z" fill="white"/>
  </g>
  <path d="M20 28C20 23.5817 23.5817 20 28 20C32.4183 20 36 23.5817 36 28C36 32.4183 32.4183 36 28 36C23.5817 36 20 32.4183 20 28Z" fill="#0A84FF"/>
  <path d="M20 28C20 23.5817 23.5817 20 28 20C32.4183 20 36 23.5817 36 28C36 32.4183 32.4183 36 28 36C23.5817 36 20 32.4183 20 28Z" fill="url(#paint0_linear_2435_390)"/>
  <path d="M20 28C20 23.5817 23.5817 20 28 20C32.4183 20 36 23.5817 36 28C36 32.4183 32.4183 36 28 36C23.5817 36 20 32.4183 20 28Z" fill="url(#paint1_radial_2435_390)"/>
  <defs>
    <filter id="filter0_i_2435_390" x="0" y="0" width="56" height="56" filterUnits="userSpaceOnUse" color-interpolation-filters="sRGB">
      <feFlood flood-opacity="0" result="BackgroundImageFix"/>
      <feBlend mode="normal" in="SourceGraphic" in2="BackgroundImageFix" result="shape"/>
      <feColorMatrix in="SourceAlpha" type="matrix" values="0 0 0 0 0 0 0 0 0 0 0 0 0 0 0 0 0 0 127 0" result="hardAlpha"/>
      <feOffset/>
      <feGaussianBlur stdDeviation="4"/>
      <feComposite in2="hardAlpha" operator="arithmetic" k2="-1" k3="1"/>
      <feColorMatrix type="matrix" values="0 0 0 0 0 0 0 0 0 0 0 0 0 0 0 0 0 0 0.08 0"/>
      <feBlend mode="normal" in2="shape" result="effect1_innerShadow_2435_390"/>
    </filter>
    <filter id="filter1_d_2435_390" x="8" y="8" width="40" height="40" filterUnits="userSpaceOnUse" color-interpolation-filters="sRGB">
      <feFlood flood-opacity="0" result="BackgroundImageFix"/>
      <feColorMatrix in="SourceAlpha" type="matrix" values="0 0 0 0 0 0 0 0 0 0 0 0 0 0 0 0 0 0 127 0" result="hardAlpha"/>
      <feOffset/>
      <feGaussianBlur stdDeviation="4"/>
      <feComposite in2="hardAlpha" operator="out"/>
      <feColorMatrix type="matrix" values="0 0 0 0 0 0 0 0 0 0 0 0 0 0 0 0 0 0 0.08 0"/>
      <feBlend mode="normal" in2="BackgroundImageFix" result="effect1_dropShadow_2435_390"/>
      <feBlend mode="normal" in="SourceGraphic" in2="effect1_dropShadow_2435_390" result="shape"/>
    </filter>
    <linearGradient id="paint0_linear_2435_390" x1="20" y1="20" x2="36" y2="36" gradientUnits="userSpaceOnUse">
      <stop stop-color="#46A2FF"/>
      <stop offset="1" stop-color="#007FFF"/>
    </linearGradient>
    <radialGradient id="paint1_radial_2435_390" cx="0" cy="0" r="1" gradientUnits="userSpaceOnUse" gradientTransform="translate(25 25) rotate(45) scale(15.5564)">
      <stop stop-color="white" stop-opacity="0.42"/>
      <stop offset="1" stop-color="#0A84FF" stop-opacity="0"/>
    </radialGradient>
  </defs>
</svg>
