<?xml version="1.0" standalone="no"?>
<!DOCTYPE svg PUBLIC "-//W3C//DTD SVG 20010904//EN"
 "http://www.w3.org/TR/2001/REC-SVG-20010904/DTD/svg10.dtd">
<svg version="1.0" xmlns="http://www.w3.org/2000/svg"
 width="700.000000pt" height="700.000000pt" viewBox="0 0 700.000000 700.000000"
 preserveAspectRatio="xMidYMid meet">
<metadata>
Created by potrace 1.14, written by Peter Selinger 2001-2017
</metadata>
<g transform="translate(0.000000,700.000000) scale(0.100000,-0.100000)"
fill="#000000" stroke="none">
<path d="M1539 6996 c-2 -2 -33 -7 -69 -10 -231 -24 -519 -130 -721 -267 -35
-23 -66 -45 -69 -48 -3 -4 -17 -14 -32 -24 -44 -28 -195 -176 -263 -257 -197
-237 -329 -540 -372 -855 -10 -76 -11 -3979 0 -4060 34 -277 132 -529 295
-765 83 -120 276 -313 402 -402 217 -154 497 -262 766 -296 80 -10 3972 -9
4054 1 484 60 930 339 1200 752 105 161 199 391 234 572 9 43 19 94 23 113 4
19 8 924 10 2010 2 2089 2 2068 -43 2250 -48 194 -126 373 -232 535 -36 55
-71 105 -76 111 -6 6 -36 40 -66 75 -47 55 -123 128 -220 210 -54 47 -210 143
-295 184 -141 67 -154 72 -265 104 -239 70 -62 65 -2266 68 -1095 2 -1992 1
-1995 -1z"/>
</g>
</svg>
