<?xml version="1.0" standalone="no"?>
<!DOCTYPE svg PUBLIC "-//W3C//DTD SVG 20010904//EN"
 "http://www.w3.org/TR/2001/REC-SVG-20010904/DTD/svg10.dtd">
<svg version="1.0" xmlns="http://www.w3.org/2000/svg"
 width="100.000000pt" height="100.000000pt" viewBox="0 0 100.000000 100.000000"
 preserveAspectRatio="xMidYMid meet">
<metadata>
Created by potrace 1.14, written by Peter Selinger 2001-2017
</metadata>
<g transform="translate(0.000000,100.000000) scale(0.100000,-0.100000)"
fill="#000000" stroke="none">
<path d="M450 906 c-5 -5 -29 -10 -52 -11 -59 -2 -83 -11 -97 -38 -7 -13 -27
-29 -44 -35 -29 -11 -70 -45 -104 -86 -23 -28 -50 -121 -42 -143 4 -12 6 -32
3 -45 -14 -62 -5 -140 24 -201 16 -34 34 -78 41 -97 20 -61 42 -80 109 -95 34
-8 74 -22 88 -32 20 -13 52 -17 152 -18 l127 -1 56 43 c32 24 65 56 76 72 10
17 34 40 53 53 19 13 36 32 38 41 2 10 15 30 29 45 23 24 24 32 18 82 -3 30
-9 92 -13 136 l-7 82 -90 88 c-49 49 -97 100 -106 114 -13 20 -28 26 -80 32
-35 4 -88 11 -116 16 -34 5 -56 5 -63 -2z"/>
</g>
</svg>
